<svg xmlns="http://www.w3.org/2000/svg" xmlns:xlink="http://www.w3.org/1999/xlink" id="processonSvg1000" viewBox="110.0 23.75 878.0 606.0" width="878.0" height="606.0"><defs id="ProcessOnDefs1001"><marker id="ProcessOnMarker1062" markerUnits="userSpaceOnUse" orient="auto" markerWidth="16.23606797749979" markerHeight="10.550836550532098" viewBox="-1.0 -1.3763819204711736 16.23606797749979 10.550836550532098" refX="-1.0" refY="3.8990363547948754"><path id="ProcessOnPath1063" d="M12.0 3.8990363547948754L0.0 7.798072709589751V0.0Z" stroke="#006666" stroke-width="2.0" fill="#006666" transform="matrix(1.0,0.0,0.0,1.0,0.0,0.0)"/></marker><marker id="ProcessOnMarker1080" markerUnits="userSpaceOnUse" orient="auto" markerWidth="16.23606797749979" markerHeight="10.550836550532098" viewBox="-1.0 -1.3763819204711736 16.23606797749979 10.550836550532098" refX="-1.0" refY="3.8990363547948754"><path id="ProcessOnPath1081" d="M12.0 3.8990363547948754L0.0 7.798072709589751V0.0Z" stroke="#006666" stroke-width="2.0" fill="#006666" transform="matrix(1.0,0.0,0.0,1.0,0.0,0.0)"/></marker><marker id="ProcessOnMarker1095" markerUnits="userSpaceOnUse" orient="auto" markerWidth="16.23606797749979" markerHeight="10.550836550532098" viewBox="-1.0 -1.3763819204711736 16.23606797749979 10.550836550532098" refX="-1.0" refY="3.8990363547948754"><path id="ProcessOnPath1096" d="M12.0 3.8990363547948754L0.0 7.798072709589751V0.0Z" stroke="#006666" stroke-width="2.0" fill="#006666" transform="matrix(1.0,0.0,0.0,1.0,0.0,0.0)"/></marker><marker id="ProcessOnMarker1099" markerUnits="userSpaceOnUse" orient="auto" markerWidth="16.23606797749979" markerHeight="10.550836550532098" viewBox="-1.0 -1.3763819204711736 16.23606797749979 10.550836550532098" refX="-1.0" refY="3.8990363547948754"><path id="ProcessOnPath1100" d="M12.0 3.8990363547948754L0.0 7.798072709589751V0.0Z" stroke="#006666" stroke-width="2.0" fill="#006666" transform="matrix(1.0,0.0,0.0,1.0,0.0,0.0)"/></marker><marker id="ProcessOnMarker1118" markerUnits="userSpaceOnUse" orient="auto" markerWidth="16.23606797749979" markerHeight="10.550836550532098" viewBox="-1.0 -1.3763819204711736 16.23606797749979 10.550836550532098" refX="-1.0" refY="3.8990363547948754"><path id="ProcessOnPath1119" d="M12.0 3.8990363547948754L0.0 7.798072709589751V0.0Z" stroke="#006666" stroke-width="2.0" fill="#006666" transform="matrix(1.0,0.0,0.0,1.0,0.0,0.0)"/></marker></defs><g id="ProcessOnG1002"><path id="ProcessOnPath1003" d="M110.0 23.75H988.0V629.75H110.0V23.75Z" fill="#ffffff"/><g id="ProcessOnG1004"><g id="ProcessOnG1005" transform="matrix(1.0,0.0,0.0,1.0,130.0,43.75)" opacity="1.0"><path id="ProcessOnPath1006" d="M0.0 0.0L838.0 0.0L838.0 566.0L0.0 566.0Z" stroke="#000000" stroke-width="2.0" stroke-dasharray="none" opacity="1.0" fill="#ffffff"/><g id="ProcessOnG1007" transform="matrix(1.0,0.0,0.0,1.0,10.0,20.5)"><text id="ProcessOnText1008" fill="#000000" font-weight="bold" font-style="normal" text-decoration="blink" font-family="微软雅黑" text-anchor="middle" font-size="20" x="409.0" y="20.5"></text><text id="ProcessOnText1009" fill="#000000" font-weight="bold" font-style="normal" text-decoration="blink" font-family="微软雅黑" text-anchor="middle" font-size="20" x="409.0" y="45.5"></text><text id="ProcessOnText1010" fill="#000000" font-weight="bold" font-style="normal" text-decoration="blink" font-family="微软雅黑" text-anchor="middle" font-size="20" x="409.0" y="70.5"></text><text id="ProcessOnText1011" fill="#000000" font-weight="bold" font-style="normal" text-decoration="blink" font-family="微软雅黑" text-anchor="middle" font-size="20" x="409.0" y="95.5"></text><text id="ProcessOnText1012" fill="#000000" font-weight="bold" font-style="normal" text-decoration="blink" font-family="微软雅黑" text-anchor="middle" font-size="20" x="409.0" y="120.5"></text><text id="ProcessOnText1013" fill="#000000" font-weight="bold" font-style="normal" text-decoration="blink" font-family="微软雅黑" text-anchor="middle" font-size="20" x="409.0" y="145.5"></text><text id="ProcessOnText1014" fill="#000000" font-weight="bold" font-style="normal" text-decoration="blink" font-family="微软雅黑" text-anchor="middle" font-size="20" x="409.0" y="170.5"></text><text id="ProcessOnText1015" fill="#000000" font-weight="bold" font-style="normal" text-decoration="blink" font-family="微软雅黑" text-anchor="middle" font-size="20" x="409.0" y="195.5"></text><text id="ProcessOnText1016" fill="#000000" font-weight="bold" font-style="normal" text-decoration="blink" font-family="微软雅黑" text-anchor="middle" font-size="20" x="409.0" y="220.5"></text><text id="ProcessOnText1017" fill="#000000" font-weight="bold" font-style="normal" text-decoration="blink" font-family="微软雅黑" text-anchor="middle" font-size="20" x="409.0" y="245.5"></text><text id="ProcessOnText1018" fill="#000000" font-weight="bold" font-style="normal" text-decoration="blink" font-family="微软雅黑" text-anchor="middle" font-size="20" x="409.0" y="270.5"></text><text id="ProcessOnText1019" fill="#000000" font-weight="bold" font-style="normal" text-decoration="blink" font-family="微软雅黑" text-anchor="middle" font-size="20" x="409.0" y="295.5"></text><text id="ProcessOnText1020" fill="#000000" font-weight="bold" font-style="normal" text-decoration="blink" font-family="微软雅黑" text-anchor="middle" font-size="20" x="409.0" y="320.5"></text><text id="ProcessOnText1021" fill="#000000" font-weight="bold" font-style="normal" text-decoration="blink" font-family="微软雅黑" text-anchor="middle" font-size="20" x="409.0" y="345.5"></text><text id="ProcessOnText1022" fill="#000000" font-weight="bold" font-style="normal" text-decoration="blink" font-family="微软雅黑" text-anchor="middle" font-size="20" x="409.0" y="370.5"></text><text id="ProcessOnText1023" fill="#000000" font-weight="bold" font-style="normal" text-decoration="blink" font-family="微软雅黑" text-anchor="middle" font-size="20" x="409.0" y="395.5"></text><text id="ProcessOnText1024" fill="#000000" font-weight="bold" font-style="normal" text-decoration="blink" font-family="微软雅黑" text-anchor="middle" font-size="20" x="409.0" y="420.5"></text><text id="ProcessOnText1025" fill="#000000" font-weight="bold" font-style="normal" text-decoration="blink" font-family="微软雅黑" text-anchor="middle" font-size="20" x="409.0" y="445.5"></text><text id="ProcessOnText1026" fill="#000000" font-weight="bold" font-style="normal" text-decoration="blink" font-family="微软雅黑" text-anchor="middle" font-size="20" x="409.0" y="470.5"></text><text id="ProcessOnText1027" fill="#000000" font-weight="bold" font-style="normal" text-decoration="blink" font-family="微软雅黑" text-anchor="middle" font-size="20" x="409.0" y="495.5"></text><text id="ProcessOnText1028" fill="#000000" font-weight="bold" font-style="normal" text-decoration="blink" font-family="微软雅黑" text-anchor="middle" font-size="20" x="409.0" y="520.5">Inside the Whole Program</text></g></g><g id="ProcessOnG1029" transform="matrix(1.0,0.0,0.0,1.0,177.0,70.5)" opacity="1.0"><path id="ProcessOnPath1030" d="M0.0 0.0L435.0 0.0L0.0 0.0M0.0 206.0L435.0 206.0L0.0 206.0Z" stroke="#006666" stroke-width="2.0" stroke-dasharray="none" opacity="1.0" fill="#ffffff"/><path id="ProcessOnPath1031" d="M0.0 0.0L435.0 0.0L435.0 206.0L0.0 206.0L0.0 0.0Z" stroke="#006666" stroke-width="0.0" stroke-dasharray="none" opacity="1.0" fill="none"/><g id="ProcessOnG1032" transform="matrix(1.0,0.0,0.0,1.0,10.0,15.5)"><text id="ProcessOnText1033" fill="#000000" font-weight="bold" font-style="normal" text-decoration="blink" font-family="微软雅黑" text-anchor="middle" font-size="14" x="207.5" y="14.350000000000001"></text><text id="ProcessOnText1034" fill="#000000" font-weight="bold" font-style="normal" text-decoration="blink" font-family="微软雅黑" text-anchor="middle" font-size="14" x="207.5" y="31.85"></text><text id="ProcessOnText1035" fill="#000000" font-weight="bold" font-style="normal" text-decoration="blink" font-family="微软雅黑" text-anchor="middle" font-size="14" x="207.5" y="49.35"></text><text id="ProcessOnText1036" fill="#000000" font-weight="bold" font-style="normal" text-decoration="blink" font-family="微软雅黑" text-anchor="middle" font-size="14" x="207.5" y="66.85"></text><text id="ProcessOnText1037" fill="#000000" font-weight="bold" font-style="normal" text-decoration="blink" font-family="微软雅黑" text-anchor="middle" font-size="14" x="207.5" y="84.35"></text><text id="ProcessOnText1038" fill="#000000" font-weight="bold" font-style="normal" text-decoration="blink" font-family="微软雅黑" text-anchor="middle" font-size="14" x="207.5" y="101.85"></text><text id="ProcessOnText1039" fill="#000000" font-weight="bold" font-style="normal" text-decoration="blink" font-family="微软雅黑" text-anchor="middle" font-size="14" x="207.5" y="119.35"></text><text id="ProcessOnText1040" fill="#000000" font-weight="bold" font-style="normal" text-decoration="blink" font-family="微软雅黑" text-anchor="middle" font-size="14" x="207.5" y="136.85"></text><text id="ProcessOnText1041" fill="#000000" font-weight="bold" font-style="normal" text-decoration="blink" font-family="微软雅黑" text-anchor="middle" font-size="14" x="207.5" y="154.35"></text><text id="ProcessOnText1042" fill="#000000" font-weight="bold" font-style="normal" text-decoration="blink" font-family="微软雅黑" text-anchor="middle" font-size="14" x="207.5" y="171.85">Build A Tool Chain</text></g></g><g id="ProcessOnG1043" transform="matrix(1.0,0.0,0.0,1.0,211.0,118.0)" opacity="1.0"><path id="ProcessOnPath1044" d="M26.4 0.0L157.5 0.0C181.04545454545453 0.0 181.04545454545453 111.0 157.5 111.0L26.4 111.0C-8.8 111.0 -8.8 0.0 26.4 0.0ZM157.5 0.0C134.375 0.0 134.375 111.0 157.5 111.0C134.375 111.0 134.375 0.0 157.5 0.0" stroke="#006666" stroke-width="2.0" stroke-dasharray="none" opacity="1.0" fill="#ffffff"/><g id="ProcessOnG1045" transform="matrix(1.0,0.0,0.0,1.0,0.0,6.75)"><text id="ProcessOnText1046" fill="#000000" font-weight="normal" font-style="normal" text-decoration="blink" font-family="微软雅黑" text-anchor="middle" font-size="13" x="70.4" y="13.325">Build a </text><text id="ProcessOnText1047" fill="#000000" font-weight="normal" font-style="normal" text-decoration="blink" font-family="微软雅黑" text-anchor="middle" font-size="13" x="70.4" y="29.575">local platform</text><text id="ProcessOnText1048" fill="#000000" font-weight="normal" font-style="normal" text-decoration="blink" font-family="微软雅黑" text-anchor="middle" font-size="13" x="70.4" y="45.825">to perform GCC</text><text id="ProcessOnText1049" fill="#000000" font-weight="normal" font-style="normal" text-decoration="blink" font-family="微软雅黑" text-anchor="middle" font-size="13" x="70.4" y="62.075">by using</text><text id="ProcessOnText1050" fill="#000000" font-weight="normal" font-style="normal" text-decoration="blink" font-family="微软雅黑" text-anchor="middle" font-size="13" x="70.4" y="78.325">host's</text><text id="ProcessOnText1051" fill="#000000" font-weight="normal" font-style="normal" text-decoration="blink" font-family="微软雅黑" text-anchor="middle" font-size="13" x="70.4" y="94.575">kernel and tools</text></g></g><g id="ProcessOnG1052" transform="matrix(1.0,0.0,0.0,1.0,444.0,118.0)" opacity="1.0"><path id="ProcessOnPath1053" d="M0.0 15.5L93.0 0.0L93.0 111.0L0.0 111.0L0.0 15.5Z" stroke="#006666" stroke-width="2.0" stroke-dasharray="none" opacity="1.0" fill="#ffffff"/><g id="ProcessOnG1054" transform="matrix(1.0,0.0,0.0,1.0,0.0,20.425000000000004)"><text id="ProcessOnText1055" fill="#000000" font-weight="normal" font-style="normal" text-decoration="blink" font-family="微软雅黑" text-anchor="middle" font-size="13" x="46.5" y="13.325">Supply</text><text id="ProcessOnText1056" fill="#000000" font-weight="normal" font-style="normal" text-decoration="blink" font-family="微软雅黑" text-anchor="middle" font-size="13" x="46.5" y="29.575">Supportive</text><text id="ProcessOnText1057" fill="#000000" font-weight="normal" font-style="normal" text-decoration="blink" font-family="微软雅黑" text-anchor="middle" font-size="13" x="46.5" y="45.825">Tools</text><text id="ProcessOnText1058" fill="#000000" font-weight="normal" font-style="normal" text-decoration="blink" font-family="微软雅黑" text-anchor="middle" font-size="13" x="46.5" y="62.075">to Make It  Av</text><text id="ProcessOnText1059" fill="#000000" font-weight="normal" font-style="normal" text-decoration="blink" font-family="微软雅黑" text-anchor="middle" font-size="13" x="46.5" y="78.325">ailable to Work</text></g></g><g id="ProcessOnG1060"><path id="ProcessOnPath1061" d="M444.0 173.5L415.5 173.5L415.5 173.5L402.2360679774998 173.5" stroke="#006666" stroke-width="2.0" stroke-dasharray="none" fill="none" marker-end="url(#ProcessOnMarker1062)"/></g><g id="ProcessOnG1064" transform="matrix(1.0,0.0,0.0,1.0,177.0,329.5)" opacity="1.0"><path id="ProcessOnPath1065" d="M0.0 0.0L435.0 0.0L0.0 0.0M0.0 206.0L435.0 206.0L0.0 206.0Z" stroke="#006666" stroke-width="2.0" stroke-dasharray="none" opacity="1.0" fill="#ffffff"/><path id="ProcessOnPath1066" d="M0.0 0.0L435.0 0.0L435.0 206.0L0.0 206.0L0.0 0.0Z" stroke="#006666" stroke-width="0.0" stroke-dasharray="none" opacity="1.0" fill="none"/><g id="ProcessOnG1067" transform="matrix(1.0,0.0,0.0,1.0,10.0,15.5)"><text id="ProcessOnText1068" fill="#000000" font-weight="bold" font-style="normal" text-decoration="blink" font-family="微软雅黑" text-anchor="middle" font-size="14" x="207.5" y="14.350000000000001"></text><text id="ProcessOnText1069" fill="#000000" font-weight="bold" font-style="normal" text-decoration="blink" font-family="微软雅黑" text-anchor="middle" font-size="14" x="207.5" y="31.85"></text><text id="ProcessOnText1070" fill="#000000" font-weight="bold" font-style="normal" text-decoration="blink" font-family="微软雅黑" text-anchor="middle" font-size="14" x="207.5" y="49.35"></text><text id="ProcessOnText1071" fill="#000000" font-weight="bold" font-style="normal" text-decoration="blink" font-family="微软雅黑" text-anchor="middle" font-size="14" x="207.5" y="66.85"></text><text id="ProcessOnText1072" fill="#000000" font-weight="bold" font-style="normal" text-decoration="blink" font-family="微软雅黑" text-anchor="middle" font-size="14" x="207.5" y="84.35"></text><text id="ProcessOnText1073" fill="#000000" font-weight="bold" font-style="normal" text-decoration="blink" font-family="微软雅黑" text-anchor="middle" font-size="14" x="207.5" y="101.85"></text><text id="ProcessOnText1074" fill="#000000" font-weight="bold" font-style="normal" text-decoration="blink" font-family="微软雅黑" text-anchor="middle" font-size="14" x="207.5" y="119.35"></text><text id="ProcessOnText1075" fill="#000000" font-weight="bold" font-style="normal" text-decoration="blink" font-family="微软雅黑" text-anchor="middle" font-size="14" x="207.5" y="136.85"></text><text id="ProcessOnText1076" fill="#000000" font-weight="bold" font-style="normal" text-decoration="blink" font-family="微软雅黑" text-anchor="middle" font-size="14" x="207.5" y="154.35"></text><text id="ProcessOnText1077" fill="#000000" font-weight="bold" font-style="normal" text-decoration="blink" font-family="微软雅黑" text-anchor="middle" font-size="14" x="207.5" y="171.85">Use the Tool Chain To Build Linux</text></g></g><g id="ProcessOnG1078"><path id="ProcessOnPath1079" d="M394.5 276.5L394.5 303.0L394.5 303.0L394.5 314.2639320225002" stroke="#006666" stroke-width="2.0" stroke-dasharray="none" fill="none" marker-end="url(#ProcessOnMarker1080)"/></g><g id="ProcessOnG1082" transform="matrix(1.0,0.0,0.0,1.0,177.0,346.0)" opacity="1.0"><path id="ProcessOnPath1083" d="M12.666666666666666 0.0L435.0 0.0L422.3333333333333 38.0L0.0 38.0L12.666666666666666 0.0Z" stroke="#006666" stroke-width="2.0" stroke-dasharray="none" opacity="1.0" fill="#ffffff"/><g id="ProcessOnG1084" transform="matrix(1.0,0.0,0.0,1.0,65.25,2.75)"><text id="ProcessOnText1085" fill="#000000" font-weight="normal" font-style="normal" text-decoration="blink" font-family="微软雅黑" text-anchor="middle" font-size="13" x="152.25" y="13.325">Customize Package List to </text><text id="ProcessOnText1086" fill="#000000" font-weight="normal" font-style="normal" text-decoration="blink" font-family="微软雅黑" text-anchor="middle" font-size="13" x="152.25" y="29.575">Achieve Different Functions</text></g></g><g id="ProcessOnG1087" transform="matrix(1.0,0.0,0.0,1.0,177.0,432.0)" opacity="1.0"><path id="ProcessOnPath1088" d="M18.0 0.0L435.0 0.0L417.0 54.0L0.0 54.0L18.0 0.0Z" stroke="#006666" stroke-width="2.0" stroke-dasharray="none" opacity="1.0" fill="#ffffff"/><g id="ProcessOnG1089" transform="matrix(1.0,0.0,0.0,1.0,65.25,2.625)"><text id="ProcessOnText1090" fill="#000000" font-weight="normal" font-style="normal" text-decoration="blink" font-family="微软雅黑" text-anchor="middle" font-size="13" x="152.25" y="13.325">Change Role to the Tool Chain </text><text id="ProcessOnText1091" fill="#000000" font-weight="normal" font-style="normal" text-decoration="blink" font-family="微软雅黑" text-anchor="middle" font-size="13" x="152.25" y="29.575">and</text><text id="ProcessOnText1092" fill="#000000" font-weight="normal" font-style="normal" text-decoration="blink" font-family="微软雅黑" text-anchor="middle" font-size="13" x="152.25" y="45.825"> Build the packages</text></g></g><g id="ProcessOnG1093"><path id="ProcessOnPath1094" d="M394.5 384.0L394.5 408.0L394.5 408.0L394.5 416.7639320225002" stroke="#006666" stroke-width="2.0" stroke-dasharray="none" fill="none" marker-end="url(#ProcessOnMarker1095)"/></g><g id="ProcessOnG1097"><path id="ProcessOnPath1098" d="M603.0 459.0L649.0 459.0L649.0 459.0L679.7639320225002 459.0" stroke="#006666" stroke-width="2.0" stroke-dasharray="none" fill="none" marker-end="url(#ProcessOnMarker1099)"/></g><g id="ProcessOnG1101" transform="matrix(1.0,0.0,0.0,1.0,686.0,122.0)" opacity="1.0"><path id="ProcessOnPath1102" d="M0.0 12.875Q45.0 38.625 90.0 12.875Q135.0 -12.875 180.0 12.875L180.0 90.125Q135.0 64.375 90.0 90.125Q45.0 115.875 0.0 90.125L0.0 12.875Z" stroke="#006666" stroke-width="2.0" stroke-dasharray="none" opacity="1.0" fill="#ffffff"/><g id="ProcessOnG1103" transform="matrix(1.0,0.0,0.0,1.0,0.0,35.25)"><text id="ProcessOnText1104" fill="#000000" font-weight="normal" font-style="normal" text-decoration="blink" font-family="微软雅黑" text-anchor="middle" font-size="13" x="90.0" y="13.325">Release the full</text><text id="ProcessOnText1105" fill="#000000" font-weight="normal" font-style="normal" text-decoration="blink" font-family="微软雅黑" text-anchor="middle" font-size="13" x="90.0" y="29.575">Tool Chain </text></g></g><g id="ProcessOnG1106" transform="matrix(1.0,0.0,0.0,1.0,690.0,407.5)" opacity="1.0"><path id="ProcessOnPath1107" d="M0.0 12.875Q45.0 38.625 90.0 12.875Q135.0 -12.875 180.0 12.875L180.0 90.125Q135.0 64.375 90.0 90.125Q45.0 115.875 0.0 90.125L0.0 12.875Z" stroke="#006666" stroke-width="2.0" stroke-dasharray="none" opacity="1.0" fill="#ffffff"/><g id="ProcessOnG1108" transform="matrix(1.0,0.0,0.0,1.0,0.0,35.25)"><text id="ProcessOnText1109" fill="#000000" font-weight="normal" font-style="normal" text-decoration="blink" font-family="微软雅黑" text-anchor="middle" font-size="13" x="90.0" y="13.325">Release the</text><text id="ProcessOnText1110" fill="#000000" font-weight="normal" font-style="normal" text-decoration="blink" font-family="微软雅黑" text-anchor="middle" font-size="13" x="90.0" y="29.575">CMLinux</text></g></g><g id="ProcessOnG1111" transform="matrix(1.0,0.0,0.0,1.0,690.0,259.5)" opacity="1.0"><path id="ProcessOnPath1112" d="M0.0 30.0L180.0 0.0L180.0 86.5L0.0 86.5L0.0 30.0Z" stroke="#006666" stroke-width="2.0" stroke-dasharray="none" opacity="1.0" fill="#ffffff"/><g id="ProcessOnG1113" transform="matrix(1.0,0.0,0.0,1.0,0.0,31.325000000000003)"><text id="ProcessOnText1114" fill="#000000" font-weight="normal" font-style="normal" text-decoration="blink" font-family="微软雅黑" text-anchor="middle" font-size="13" x="90.0" y="13.325">Prepare Boot Scripts and Pac</text><text id="ProcessOnText1115" fill="#000000" font-weight="normal" font-style="normal" text-decoration="blink" font-family="微软雅黑" text-anchor="middle" font-size="13" x="90.0" y="29.575">kage Method</text></g></g><g id="ProcessOnG1116"><path id="ProcessOnPath1117" d="M780.0 346.0L780.0 383.1875L780.0 383.1875L780.0 405.1389320225002" stroke="#006666" stroke-width="2.0" stroke-dasharray="none" fill="none" marker-end="url(#ProcessOnMarker1118)"/></g></g></g></svg>